<svg xmlns="http://www.w3.org/2000/svg" id="Layer_1" width="5.355in" height="6in" viewBox="0 0 385.542 432"><path id="path8-8" d="M156.208,0c45.888,1.205,85.012,17.044,114.733,52.929,16.902,20.407,25.746,44.492,30.373,70.278,3.235,18.037,3.761,36.305,4.308,54.566.706,23.592,3.045,46.98,9.848,69.692,8.814,29.423,24.965,54.234,47.655,74.879,6.232,5.67,12.239,11.581,16.75,18.814,2.835,4.544,4.821,9.402,5.426,14.729,1.866,16.428-7.15,27.501-24.073,29.668-11.96,1.533-23.577-.813-35.206-3.102-8.669-1.709-17.309-3.643-26.267-3.05-12.222.81-19.599,6.444-23.251,17.986-.817,2.584-1.622,5.171-2.444,7.753-4.928,15.489-17.998,25.536-34.196,26.679-17.574,1.24-33.451-4.124-48.778-11.921-13.384-6.808-25.563-15.588-38.328-23.408-14.129-8.655-28.615-12.27-45.199-7.237-14.32,4.344-26.622-1.594-37.212-11.118-12.878-11.583-22.509-25.747-31.094-40.638-19.459-33.752-31.735-69.986-36.614-108.624C-2.965,184.502-.142,140.911,15.945,98.719,36.513,44.771,75.159,12.469,131.946,1.928c2.522-.468,5.079-.835,7.637-1.013,5.547-.388,11.109-.622,16.624-.916ZM104.454,306.125c2.449-1.405,8.611,12.854,9.305,14.158,4.113,7.741,8.206,15.503,12.774,22.988,12.873,21.099,26.062,41.853,48.328,54.993,15.889,9.377,31.325,19.406,49.883,22.694,9.146,1.62,18.213,1.528,26.684-3.045,8.915-4.814,12.697-13.095,14.946-22.396,1.511-6.253-3.295-9.925-5.877-14.491-.836-1.481-2.001-2.775-3.037-4.139-14.12-18.574-26.8-38.002-35.276-59.889-.911-2.351-1.75-4.734-2.406-7.169-.393-1.456-1.022-2.839-1.321-4.325-.116-.583-.275-2.288.13-2.76,1.061-1.241,5.089,7.519,5.465,8.206,2.524,4.595,5.169,9.12,7.919,13.585,5.482,8.898,11.386,17.535,17.589,25.947,6.9,9.354,14.175,18.43,21.675,27.308,1.757,2.079,2.775,2.339,4.959.39,6.504-5.795,14.308-8.602,23.005-9.122,11.263-.675,22.116,1.798,33.027,3.985,9.378,1.878,18.792,3.725,28.43,2.203,11.692-1.844,16.836-10.072,13.575-21.431-1.622-5.653-4.872-10.308-8.869-14.435-4.667-4.817-9.503-9.474-14.356-14.108-31.756-30.331-47.732-68.177-53.132-111.127-2.461-19.583-2.341-39.302-3.508-58.954-.837-14.112-2.449-28.121-5.885-41.874-6.955-27.839-19.838-52.218-42.253-70.726-28.584-23.603-61.71-33.538-98.55-31.742-25.112,1.225-48.024,9.064-68.971,22.846-28.215,18.563-45.43,45.194-55.808,76.678-12.784,38.781-15.176,78.471-9.633,118.769,5.294,38.489,17.863,74.445,37.904,107.726,7.823,12.989,16.446,25.443,28.191,35.315,8.139,6.842,17.34,9.624,27.897,6.581,2.731-.788,5.538-1.323,8.319-1.931,6.449-1.411,12.873-.398,20.132.815-1.046-.176-3.522-5.178-4.159-6.15-1.398-2.133-2.763-4.286-4.091-6.463-2.62-4.291-5.096-8.671-7.396-13.14-4.53-8.801-8.37-17.965-11.292-27.425-.914-2.96-1.728-5.95-2.454-8.963-.523-2.172-1.48-4.218-1.909-6.424-.113-.579-.591-2.345-.084-2.857.041-.041.082-.071.13-.101h0ZM214.424,103.181c-9.681-14.241-26.619-15.067-37.499-1.757-5.815,7.114-8.201,15.549-8.852,24.529-.923,12.702.825,24.818,8.999,35.156,10.164,12.854,27.497,12.552,37.347-.519,6.205-8.232,8.141-17.731,8.213-27.055-.14-11.33-2.121-21.403-8.209-30.353ZM118.74,161.053c6.581.526,11.998-.258,17.408.55,8.551,1.276,12.357,4.337,13.187,13.011,1.437,15.013.67,29.926-5.615,44.005-3.387,7.586-8.587,13.587-16.87,15.855-9.272,2.541-16.812-.976-22.842-7.948-7.374-8.525-9.988-19.045-11.615-29.818-1.15-7.611-1.627-15.301-.277-22.976,1.458-8.295,5.663-12.187,14.124-12.64,4.547-.235,9.117-.037,12.5-.037v-.002ZM127.658,195.34c-4.465.187-8.847,1.244-12.745,3.816-11.911,7.864-11.658,14.245-.526,23.562,5.875,4.915,13.341,3.18,17.765-3.211,2.71-3.915,4.183-8.367,5.299-12.938,2.008-8.232.296-10.484-8.351-11.165-.427-.037-.853-.041-1.442-.064h0ZM35.855,137.765c.603,6.449,2.107,12.652,5.622,18.196,8.77,13.83,24.883,14.997,34.336,1.687,11.714-16.494,12.637-34.666,3.833-52.662-7.837-16.02-24.891-16.764-35.353-2.273-6.468,8.959-8.322,19.201-8.462,29.919,0,1.709-.135,3.435.022,5.133h.002Z" fill="#1a1a1a" stroke-width="0"/></svg>